<svg xmlns="http://www.w3.org/2000/svg" xmlns:xlink="http://www.w3.org/1999/xlink" width="500" zoomAndPan="magnify" viewBox="0 0 375 374.999991" height="500" preserveAspectRatio="xMidYMid meet" version="1.0"><defs><g/></defs><g fill="#ffffff" fill-opacity="1"><g transform="translate(12.153347, 273.607918)"><g><path d="M 11.03125 -117.640625 C 11.03125 -140.804688 16.039062 -161.46875 26.0625 -179.625 C 36.09375 -197.789062 50.070312 -211.941406 68 -222.078125 C 85.9375 -232.210938 106.269531 -237.28125 129 -237.28125 C 156.851562 -237.28125 180.691406 -229.925781 200.515625 -215.21875 C 220.347656 -200.519531 233.609375 -180.46875 240.296875 -155.0625 L 177.46875 -155.0625 C 172.78125 -164.875 166.144531 -172.34375 157.5625 -177.46875 C 148.988281 -182.59375 139.242188 -185.15625 128.328125 -185.15625 C 110.734375 -185.15625 96.476562 -179.023438 85.5625 -166.765625 C 74.644531 -154.515625 69.1875 -138.140625 69.1875 -117.640625 C 69.1875 -97.140625 74.644531 -80.757812 85.5625 -68.5 C 96.476562 -56.25 110.734375 -50.125 128.328125 -50.125 C 139.242188 -50.125 148.988281 -52.6875 157.5625 -57.8125 C 166.144531 -62.9375 172.78125 -70.398438 177.46875 -80.203125 L 240.296875 -80.203125 C 233.609375 -54.804688 220.347656 -34.8125 200.515625 -20.21875 C 180.691406 -5.625 156.851562 1.671875 129 1.671875 C 106.269531 1.671875 85.9375 -3.394531 68 -13.53125 C 50.070312 -23.664062 36.09375 -37.753906 26.0625 -55.796875 C 16.039062 -73.847656 11.03125 -94.460938 11.03125 -117.640625 Z M 11.03125 -117.640625 "/></g></g></g><g fill="#ffffff" fill-opacity="1"><g transform="translate(116.859539, 328.082311)"><g><path d="M 229.609375 -188.078125 L 229.609375 0 L 183.796875 0 L 183.796875 -112.796875 L 141.734375 0 L 104.75 0 L 62.421875 -113.0625 L 62.421875 0 L 16.609375 0 L 16.609375 -188.078125 L 70.734375 -188.078125 L 123.515625 -57.875 L 175.75 -188.078125 Z M 229.609375 -188.078125 "/></g></g></g></svg>